# xmcd
#
# Track frame offsets:
#	150
#	18876
#	35619
#	50180
#	65083
#	80917
#	96265
#	112562
#	133679
#	153672
#	170618
#	184058
#	200263
#	217618
#	234888
#	249743
#	268030
#	291235
#	306416
#
# Disc length: 4276 seconds
#
# Revision: 0
# Processed by: cddbd v1.5.2PL0 Copyright (c) Steve Scherf et al.
# Submitted via: audiograbber 1.83.01
#
DISCID=1310b213
DTITLE=Various Artist - Hott Country 135
DYEAR=2007
DGENRE=Country
TTITLE0=Shane Yellowbird - Pick-up Truck
TTITLE1=Adam Gregory - One Breath
TTITLE2=Jack Ingram - Measure Of A Man
TTITLE3=Brad Johner - Your Love Is My Luck
TTITLE4=Prairie Oyster - I Threw It All Away
TTITLE5=Danian Marshall - Not Even A Little
TTITLE6=Johnny Reid - Kickin Stones
TTITLE7=Los Lonely Boys Feat Willie Nelson - Outlaws
TTITLE8=Keith Urban - I Told You So
TTITLE9=Trace Adkins - I Wanna Feel Something
TTITLE10=Wil - Wedding Dress ( Radio Edit )
TTITLE11=Trent Tomlinson - Just Might Have Her Radio On
TTITLE12=Wreckers - Tennessee
TTITLE13=Halfway To Hazard - Daisy
TTITLE14=Flynnville Train - last Good Time
TTITLE15=Jim Cuddy - Maybe Sometime
TTITLE16=Wil - December
TTITLE17=Shane Yelowhead - They're All About You
TTITLE18=Nitty Gritty Dirt Band - Dance Little Jean ( 1983 )
EXTD=May 2007
EXTT0=
EXTT1=
EXTT2=
EXTT3=
EXTT4=
EXTT5=
EXTT6=
EXTT7=
EXTT8=
EXTT9=
EXTT10=
EXTT11=
EXTT12=
EXTT13=
EXTT14=
EXTT15=
EXTT16=May 2007
EXTT17=
EXTT18=
PLAYORDER=
